<svg width="738" height="122" viewBox="0 0 738 122" fill="none" xmlns="http://www.w3.org/2000/svg">
<path d="M724.568 32H737.88L700.888 121.6H687.576L698.2 93.952L672.856 32H686.168L705.368 80.512L724.568 32Z" fill="#F50004"/>
<path d="M597.06 96V0H609.22V96H597.06ZM615.748 47.616C611.396 51.8827 609.22 57.3013 609.22 63.872C609.22 70.4427 611.396 75.904 615.748 80.256C620.185 84.5227 625.604 86.656 632.004 86.656C638.404 86.656 643.78 84.5227 648.132 80.256C652.569 75.904 654.788 70.4427 654.788 63.872C654.788 57.3013 652.569 51.8827 648.132 47.616C643.78 43.264 638.404 41.088 632.004 41.088C625.604 41.088 620.185 43.264 615.748 47.616ZM612.932 88.576C607.044 82.0053 604.1 73.7707 604.1 63.872C604.1 53.9733 607.044 45.7813 612.932 39.296C618.905 32.7253 626.244 29.44 634.948 29.44C643.908 29.44 651.46 32.7253 657.604 39.296C663.833 45.7813 666.948 53.9733 666.948 63.872C666.948 73.7707 663.833 82.0053 657.604 88.576C651.46 95.0613 643.908 98.304 634.948 98.304C626.244 98.304 618.905 95.0613 612.932 88.576Z" fill="#F50004"/>
<path d="M582.762 96H570.602V0H582.762V96ZM563.946 80.256C568.383 75.904 570.602 70.4427 570.602 63.872C570.602 57.3013 568.383 51.8827 563.946 47.616C559.594 43.264 554.218 41.088 547.818 41.088C541.418 41.088 535.999 43.264 531.562 47.616C527.21 51.8827 525.034 57.3013 525.034 63.872C525.034 70.4427 527.21 75.904 531.562 80.256C535.999 84.5227 541.418 86.656 547.818 86.656C554.218 86.656 559.594 84.5227 563.946 80.256ZM566.762 39.296C572.735 45.7813 575.722 53.9733 575.722 63.872C575.722 73.7707 572.735 82.0053 566.762 88.576C560.874 95.0613 553.578 98.304 544.874 98.304C535.914 98.304 528.319 95.0613 522.09 88.576C515.946 82.0053 512.874 73.7707 512.874 63.872C512.874 53.9733 515.946 45.7813 522.09 39.296C528.319 32.7253 535.914 29.44 544.874 29.44C553.578 29.44 560.874 32.7253 566.762 39.296Z" fill="#F50004"/>
<path d="M491.406 58.368C490.809 52.992 488.505 48.7253 484.494 45.568C480.569 42.4107 475.833 40.832 470.286 40.832C464.91 40.832 460.302 42.4107 456.462 45.568C452.622 48.7253 450.318 52.992 449.55 58.368H491.406ZM449.55 69.376C450.318 74.752 452.665 79.0187 456.59 82.176C460.515 85.3333 465.251 86.912 470.798 86.912C474.979 86.912 478.777 85.9307 482.19 83.968C485.603 82.0053 488.163 79.36 489.87 76.032L501.006 80.384C498.275 85.8453 494.179 90.1973 488.718 93.44C483.342 96.6827 477.369 98.304 470.798 98.304C461.241 98.304 453.177 95.0613 446.606 88.576C440.035 82.0053 436.75 73.7707 436.75 63.872C436.75 53.9733 439.95 45.7813 446.35 39.296C452.75 32.7253 460.643 29.44 470.03 29.44C479.417 29.44 487.395 32.6827 493.966 39.168C500.537 45.568 503.822 53.5893 503.822 63.232C503.822 64.9387 503.566 66.9867 503.054 69.376H449.55Z" fill="#F50004"/>
<path d="M425.013 96H412.853V0H425.013V96ZM406.197 80.256C410.634 75.904 412.853 70.4427 412.853 63.872C412.853 57.3013 410.634 51.8827 406.197 47.616C401.845 43.264 396.469 41.088 390.069 41.088C383.669 41.088 378.25 43.264 373.813 47.616C369.461 51.8827 367.285 57.3013 367.285 63.872C367.285 70.4427 369.461 75.904 373.813 80.256C378.25 84.5227 383.669 86.656 390.069 86.656C396.469 86.656 401.845 84.5227 406.197 80.256ZM409.013 39.296C414.986 45.7813 417.973 53.9733 417.973 63.872C417.973 73.7707 414.986 82.0053 409.013 88.576C403.125 95.0613 395.829 98.304 387.125 98.304C378.165 98.304 370.57 95.0613 364.341 88.576C358.197 82.0053 355.125 73.7707 355.125 63.872C355.125 53.9733 358.197 45.7813 364.341 39.296C370.57 32.7253 378.165 29.44 387.125 29.44C395.829 29.44 403.125 32.7253 409.013 39.296Z" fill="#F50004"/>
<path d="M287.31 96V32H299.47V96H287.31ZM331.214 96V58.624C331.214 53.504 329.806 49.4933 326.99 46.592C324.174 43.6906 320.547 42.24 316.11 42.24C311.587 42.24 307.662 43.8613 304.334 47.104C301.091 50.2613 299.47 54.1013 299.47 58.624H293.71C293.71 50.8586 296.184 44.2453 301.134 38.784C306.168 33.3226 312.355 30.592 319.694 30.592C326.435 30.592 332.067 32.9386 336.59 37.632C341.112 42.24 343.374 48.3413 343.374 55.936V96H331.214Z" fill="#F50004"/>
<path d="M272.939 32V96H260.779V32H272.939ZM231.595 32V71.424C231.595 75.8613 232.875 79.36 235.435 81.92C238.08 84.48 241.408 85.76 245.419 85.76C249.685 85.76 253.312 84.3947 256.299 81.664C259.285 78.9333 260.779 75.6907 260.779 71.936H266.667C266.667 79.0187 264.277 85.0347 259.499 89.984C254.72 94.9333 248.832 97.408 241.835 97.408C235.435 97.408 230.101 95.2747 225.835 91.008C221.568 86.7413 219.435 81.1093 219.435 74.112V32H231.595Z" fill="#F50004"/>
<path d="M156.438 47.488C152.086 51.7547 149.91 57.216 149.91 63.872C149.91 70.528 152.086 75.9893 156.438 80.256C160.875 84.5227 166.294 86.656 172.694 86.656C179.094 86.656 184.47 84.5227 188.822 80.256C193.259 75.9893 195.478 70.528 195.478 63.872C195.478 57.216 193.259 51.7547 188.822 47.488C184.47 43.2213 179.094 41.088 172.694 41.088C166.294 41.088 160.875 43.2213 156.438 47.488ZM147.862 88.576C141.121 82.0907 137.75 73.856 137.75 63.872C137.75 53.888 141.121 45.6533 147.862 39.168C154.689 32.6827 162.966 29.44 172.694 29.44C182.422 29.44 190.657 32.6827 197.398 39.168C204.225 45.6533 207.638 53.888 207.638 63.872C207.638 73.856 204.225 82.0907 197.398 88.576C190.657 95.0613 182.422 98.304 172.694 98.304C162.966 98.304 154.689 95.0613 147.862 88.576Z" fill="#F50004"/>
<path d="M101.725 69.248C85.6823 66.6027 77.661 60.2027 77.661 50.048C77.661 44.3307 79.7943 39.6373 84.061 35.968C88.413 32.2133 93.917 30.336 100.573 30.336C106.461 30.336 111.794 31.9573 116.573 35.2C121.437 38.4427 124.936 42.752 127.069 48.128L115.293 51.968C114.013 48.64 112.093 46.0373 109.533 44.16C106.973 42.1973 104.029 41.216 100.701 41.216C97.5437 41.216 94.941 42.0267 92.893 43.648C90.845 45.184 89.821 47.1467 89.821 49.536C89.821 51.7547 90.8877 53.5467 93.021 54.912C95.2397 56.2773 98.7383 57.3867 103.517 58.24C111.709 59.52 117.896 61.8667 122.077 65.28C126.344 68.6933 128.477 72.96 128.477 78.08C128.477 83.6267 126.13 88.2347 121.437 91.904C116.829 95.5733 111.112 97.408 104.285 97.408C97.9703 97.408 92.253 95.872 87.133 92.8C82.013 89.728 78.3437 85.5893 76.125 80.384L87.517 76.032C88.9677 79.4453 91.1437 82.1333 94.045 84.096C97.0317 86.0587 100.36 87.04 104.029 87.04C107.528 87.04 110.429 86.2293 112.733 84.608C115.122 82.9013 116.317 80.8107 116.317 78.336C116.317 73.8987 111.453 70.8693 101.725 69.248Z" fill="#F50004"/>
<path d="M54.656 58.368C54.0587 52.992 51.7547 48.7253 47.744 45.568C43.8187 42.4107 39.0827 40.832 33.536 40.832C28.16 40.832 23.552 42.4107 19.712 45.568C15.872 48.7253 13.568 52.992 12.8 58.368H54.656ZM12.8 69.376C13.568 74.752 15.9147 79.0187 19.84 82.176C23.7653 85.3333 28.5013 86.912 34.048 86.912C38.2293 86.912 42.0267 85.9307 45.44 83.968C48.8533 82.0053 51.4133 79.36 53.12 76.032L64.256 80.384C61.5253 85.8453 57.4293 90.1973 51.968 93.44C46.592 96.6827 40.6187 98.304 34.048 98.304C24.4907 98.304 16.4267 95.0613 9.856 88.576C3.28533 82.0053 0 73.7707 0 63.872C0 53.9733 3.2 45.7813 9.6 39.296C16 32.7253 23.8933 29.44 33.28 29.44C42.6667 29.44 50.6453 32.6827 57.216 39.168C63.7867 45.568 67.072 53.5893 67.072 63.232C67.072 64.9387 66.816 66.9867 66.304 69.376H12.8Z" fill="#F50004"/>
</svg>
