<svg width="297" height="104" viewBox="0 0 297 104" fill="none" xmlns="http://www.w3.org/2000/svg">
<path d="M280.456 8.192L272.136 0L251.912 20.992L258.696 28.16L280.456 8.192ZM284.168 63.232C283.57 57.856 281.266 53.5893 277.256 50.432C273.33 47.2747 268.594 45.696 263.048 45.696C257.672 45.696 253.064 47.2747 249.224 50.432C245.384 53.5893 243.08 57.856 242.312 63.232H284.168ZM242.312 74.24C243.08 79.616 245.426 83.8827 249.352 87.04C253.277 90.1973 258.013 91.776 263.56 91.776C267.741 91.776 271.538 90.7947 274.952 88.832C278.365 86.8693 280.925 84.224 282.632 80.896L293.768 85.248C291.037 90.7093 286.941 95.0613 281.48 98.304C276.104 101.547 270.13 103.168 263.56 103.168C254.002 103.168 245.938 99.9253 239.368 93.44C232.797 86.8693 229.512 78.6347 229.512 68.736C229.512 58.8373 232.712 50.6453 239.112 44.16C245.512 37.5893 253.405 34.304 262.792 34.304C272.178 34.304 280.157 37.5467 286.728 44.032C293.298 50.432 296.584 58.4533 296.584 68.096C296.584 69.8027 296.328 71.8507 295.816 74.24H242.312Z" fill="#F50004"/>
<path d="M214.42 89.472H222.996V100.864H212.628C206.143 100.864 201.023 99.2427 197.268 96C193.514 92.672 191.636 88.192 191.636 82.56V48.128H179.988V36.864H191.636V18.432L203.796 15.872V36.864H222.996V48.128H203.796V79.744C203.796 82.9014 204.692 85.3333 206.484 87.04C208.362 88.6613 211.007 89.472 214.42 89.472Z" fill="#F50004"/>
<path d="M162.043 63.232C161.445 57.856 159.141 53.5893 155.131 50.432C151.205 47.2747 146.469 45.696 140.923 45.696C135.547 45.696 130.939 47.2747 127.099 50.432C123.259 53.5893 120.955 57.856 120.187 63.232H162.043ZM120.187 74.24C120.955 79.616 123.301 83.8827 127.227 87.04C131.152 90.1973 135.888 91.776 141.435 91.776C145.616 91.776 149.413 90.7947 152.827 88.832C156.24 86.8694 158.8 84.224 160.507 80.896L171.643 85.248C168.912 90.7094 164.816 95.0614 159.355 98.304C153.979 101.547 148.005 103.168 141.435 103.168C131.877 103.168 123.813 99.9254 117.243 93.44C110.672 86.8694 107.387 78.6347 107.387 68.736C107.387 58.8373 110.587 50.6454 116.987 44.16C123.387 37.5894 131.28 34.304 140.667 34.304C150.053 34.304 158.032 37.5467 164.603 44.032C171.173 50.432 174.459 58.4533 174.459 68.096C174.459 69.8027 174.203 71.8507 173.691 74.24H120.187Z" fill="#F50004"/>
<path d="M67.6973 100.864V36.864H79.8573V100.864H67.6973ZM99.4413 48C94.0653 48 89.4573 49.5787 85.6173 52.736C81.7773 55.8934 79.8573 59.6907 79.8573 64.128H74.0973C74.0973 56.5334 76.4866 49.92 81.2653 44.288C86.0439 38.656 91.8466 35.84 98.6733 35.84H102.257V48H99.4413Z" fill="#F50004"/>
<path d="M41.216 72.32L24.32 74.368C16.5547 75.3067 12.672 78.208 12.672 83.072C12.672 85.632 13.7387 87.68 15.872 89.216C18.0053 90.6667 20.9067 91.392 24.576 91.392C29.6107 91.392 33.6213 89.9413 36.608 87.04C39.68 84.1387 41.216 80.2987 41.216 75.52H45.824C45.824 83.2 43.4773 89.6 38.784 94.72C34.0907 99.7547 28.2453 102.272 21.248 102.272C15.1893 102.272 10.1973 100.565 6.272 97.152C2.432 93.6533 0.512 89.1733 0.512 83.712C0.512 78.336 2.38933 73.8987 6.144 70.4C9.89867 66.816 15.0187 64.6827 21.504 64L41.216 61.696V59.648C41.216 56.1493 39.808 53.12 36.992 50.56C34.176 48 30.72 46.72 26.624 46.72C22.9547 46.72 19.6693 47.7013 16.768 49.664C13.952 51.6267 12.16 54.144 11.392 57.216L0 53.504C1.70667 48.128 4.94933 43.776 9.728 40.448C14.592 37.12 20.0533 35.456 26.112 35.456C33.536 35.456 39.936 37.76 45.312 42.368C50.7733 46.976 53.504 52.4373 53.504 58.752V100.864H41.216V72.32Z" fill="#F50004"/>
</svg>
