<svg width="791" height="96" viewBox="0 0 791 96" fill="none" xmlns="http://www.w3.org/2000/svg">
<path d="M715.635 57.9735H770.507V69.9727H715.635V57.9735ZM709.972 94.3755H695.276L734.779 0H751.497L791 94.3755H776.439L743.273 13.3474L709.972 94.3755Z" fill="#F50004"/>
<path d="M683.677 94.3755H670.869V0H683.677V94.3755Z" fill="#F50004"/>
<path d="M625.601 12.5385H598.097V47.1877H625.601C631.174 47.1877 635.802 45.5249 639.488 42.1993C643.263 38.7838 645.15 34.6043 645.15 29.6609C645.15 24.7174 643.307 20.6278 639.622 17.3921C635.937 14.1563 631.263 12.5385 625.601 12.5385ZM631.263 58.6476L658.497 94.3755H643.263L616.703 59.5914H598.097V94.3755H585.289V0H626.949C636.117 0 643.667 2.78633 649.599 8.35898C655.531 13.9316 658.497 21.1221 658.497 29.9305C658.497 37.5704 655.891 44.1318 650.678 49.6145C645.555 55.0074 639.083 58.0185 631.263 58.6476Z" fill="#F50004"/>
<path d="M498.391 57.9735H553.264V69.9727H498.391V57.9735ZM492.729 94.3755H478.033L517.536 0H534.254L573.757 94.3755H559.196L526.03 13.3474L492.729 94.3755Z" fill="#F50004"/>
<path d="M428.919 94.3755H393.326V0H428.919C437.457 0 445.232 1.97739 452.243 5.93218C459.344 9.88696 465.006 15.5045 469.231 22.7849C473.455 29.9755 475.567 38.0648 475.567 47.0529C475.567 56.1309 473.455 64.3102 469.231 71.5905C465.006 78.7811 459.344 84.3986 452.243 88.4433C445.232 92.3981 437.457 94.3755 428.919 94.3755ZM427.57 12.4036H406.134V81.9718H427.57C437.368 81.9718 445.637 78.6912 452.378 72.1298C459.209 65.5685 462.624 57.2095 462.624 47.0529C462.624 36.8963 459.209 28.5823 452.378 22.1108C445.637 15.6394 437.368 12.4036 427.57 12.4036Z" fill="#F50004"/>
<path d="M272.459 94.3755V0H285.268V40.9859H289.717L328.545 0H345.533L301.042 47.3226L345.533 94.3755H328.545L289.717 54.1985H285.268V94.3755H272.459Z" fill="#F50004"/>
<path d="M246.111 84.9379C238.651 92.2183 229.394 95.8585 218.338 95.8585C207.283 95.8585 198.025 92.2183 190.565 84.9379C183.105 77.6575 179.375 68.4896 179.375 57.4342V0H192.183V56.086C192.183 64.5349 194.609 71.1412 199.463 75.9049C204.406 80.6686 210.698 83.0504 218.338 83.0504C225.978 83.0504 232.225 80.6686 237.078 75.9049C242.022 71.1412 244.494 64.5349 244.494 56.086V0H257.302V57.4342C257.302 68.4896 253.572 77.6575 246.111 84.9379Z" fill="#F50004"/>
<path d="M86.8154 94.3755V0H99.6235V40.7163H151.53V0H164.338V94.3755H151.53V53.3896H99.6235V94.3755H86.8154Z" fill="#F50004"/>
<path d="M73.8825 94.3755H0V78.7361L59.1869 12.4036H0V0H73.8825V14.8304L14.6956 81.9718H73.8825V94.3755Z" fill="#F50004"/>
</svg>
