<svg width="802" height="107" viewBox="0 0 802 107" fill="none" xmlns="http://www.w3.org/2000/svg">
<path d="M745.074 92.1601L760.306 58.8801L728.05 2.56006H742.514L767.09 47.3601L787.698 2.56006H801.906L759.282 92.1601H745.074Z" fill="#F50004"/>
<path d="M623.738 92.1601V2.56006H638.33L670.586 62.0801L702.842 2.56006H717.434V92.1601H705.146V22.1441L674.938 78.0801H666.362L636.026 22.1441V92.1601H623.738Z" fill="#F50004"/>
<path d="M532.974 46.976C532.974 57.3013 536.217 65.792 542.702 72.448C549.273 79.0187 557.252 82.304 566.638 82.304C576.025 82.304 583.961 79.0187 590.446 72.448C597.017 65.792 600.302 57.3013 600.302 46.976C600.302 36.8213 597.017 28.5013 590.446 22.016C583.961 15.4453 576.025 12.16 566.638 12.16C557.252 12.16 549.273 15.4453 542.702 22.016C536.217 28.5013 532.974 36.8213 532.974 46.976ZM520.814 46.976C520.814 40.2347 522.009 33.92 524.398 28.032C526.873 22.144 530.158 17.1947 534.254 13.184C538.35 9.088 543.214 5.888 548.846 3.584C554.478 1.19467 560.409 0 566.638 0C572.868 0 578.798 1.19467 584.43 3.584C590.062 5.888 594.926 9.088 599.022 13.184C603.118 17.1947 606.361 22.144 608.75 28.032C611.225 33.92 612.462 40.2347 612.462 46.976C612.462 53.8027 611.225 60.2027 608.75 66.176C606.361 72.064 603.118 77.0987 599.022 81.28C594.926 85.376 590.062 88.6187 584.43 91.008C578.798 93.312 572.868 94.464 566.638 94.464C560.409 94.464 554.478 93.312 548.846 91.008C543.214 88.6187 538.35 85.376 534.254 81.28C530.158 77.0987 526.873 72.064 524.398 66.176C522.009 60.2027 520.814 53.8027 520.814 46.976Z" fill="#F50004"/>
<path d="M450.625 92.1601V2.56006H512.449V13.9521H462.785V92.1601H450.625Z" fill="#F50004"/>
<path d="M382.699 92.1601L397.931 58.8801L365.675 2.56006H380.139L404.715 47.3601L425.323 2.56006H439.531L396.907 92.1601H382.699Z" fill="#F50004"/>
<path d="M325.111 14.4641H300.535V50.9441H325.111C330.999 50.9441 335.906 49.1947 339.831 45.6961C343.756 42.1121 345.719 37.6747 345.719 32.3841C345.719 27.2641 343.756 22.9974 339.831 19.5841C335.906 16.1707 330.999 14.4641 325.111 14.4641ZM325.111 62.7201H300.535V92.1601H288.375V2.56006H326.391C335.436 2.56006 342.946 5.41873 348.919 11.1361C354.892 16.7681 357.879 23.8507 357.879 32.3841C357.879 40.8321 354.679 48.0001 348.279 53.8881C341.964 59.7761 334.242 62.7201 325.111 62.7201Z" fill="#F50004"/>
<path d="M186.291 80.7681H277.683V107.008H265.523V92.1601H198.451V107.008H186.291V80.7681ZM190.643 80.7681C196.702 80.7681 201.352 78.8481 204.595 75.0081C207.923 71.0827 209.587 66.1334 209.587 60.1601V2.56006H267.571V92.0321H255.411V14.4641H221.747V61.9521C221.747 69.3761 218.974 75.8187 213.427 81.2801C207.88 86.6561 200.712 89.3441 191.923 89.3441H188.211L186.291 80.7681H190.643Z" fill="#F50004"/>
<path d="M98.6004 46.976C98.6004 57.3013 101.843 65.792 108.328 72.448C114.899 79.0187 122.878 82.304 132.264 82.304C141.651 82.304 149.587 79.0187 156.072 72.448C162.643 65.792 165.928 57.3013 165.928 46.976C165.928 36.8213 162.643 28.5013 156.072 22.016C149.587 15.4453 141.651 12.16 132.264 12.16C122.878 12.16 114.899 15.4453 108.328 22.016C101.843 28.5013 98.6004 36.8213 98.6004 46.976ZM86.4404 46.976C86.4404 40.2347 87.6351 33.92 90.0244 28.032C92.4991 22.144 95.7844 17.1947 99.8804 13.184C103.976 9.088 108.84 5.888 114.472 3.584C120.104 1.19467 126.035 0 132.264 0C138.494 0 144.424 1.19467 150.056 3.584C155.688 5.888 160.552 9.088 164.648 13.184C168.744 17.1947 171.987 22.144 174.376 28.032C176.851 33.92 178.088 40.2347 178.088 46.976C178.088 53.8027 176.851 60.2027 174.376 66.176C171.987 72.064 168.744 77.0987 164.648 81.28C160.552 85.376 155.688 88.6187 150.056 91.008C144.424 93.312 138.494 94.464 132.264 94.464C126.035 94.464 120.104 93.312 114.472 91.008C108.84 88.6187 103.976 85.376 99.8804 81.28C95.7844 77.0987 92.4991 72.064 90.0244 66.176C87.6351 60.2027 86.4404 53.8027 86.4404 46.976Z" fill="#F50004"/>
<path d="M0 2.56006H74.624V92.1601H62.464V13.9521H12.16V92.1601H0V2.56006Z" fill="#F50004"/>
</svg>
