<svg width="522" height="91" viewBox="0 0 522 91" fill="none" xmlns="http://www.w3.org/2000/svg">
<path d="M490.304 12.0813H463.803V45.4671H490.304C495.673 45.4671 500.133 43.8649 503.684 40.6606C507.322 37.3696 509.14 33.3426 509.14 28.5793C509.14 23.8161 507.365 19.8756 503.814 16.7579C500.263 13.6401 495.76 12.0813 490.304 12.0813ZM495.76 56.5091L522.001 90.9342H507.322L481.73 57.4185H463.803V90.9342H451.462V0H491.603C500.436 0 507.711 2.68473 513.427 8.05418C519.143 13.4236 522.001 20.3519 522.001 28.8391C522.001 36.2005 519.489 42.5226 514.466 47.8054C509.53 53.0017 503.294 55.9029 495.76 56.5091Z" fill="#F50004"/>
<path d="M390.223 39.2316H436.21V51.4428H390.223V78.853H439.327V90.9342H377.882V0H439.327V12.0813H390.223V39.2316Z" fill="#F50004"/>
<path d="M321.09 90.9342H286.795V0H321.09C329.317 0 336.809 1.90529 343.564 5.71587C350.406 9.52645 355.862 14.9392 359.932 21.9541C364.002 28.8824 366.038 36.6768 366.038 45.3372C366.038 54.0842 364.002 61.9652 359.932 68.9801C355.862 75.9084 350.406 81.3212 343.564 85.2184C336.809 89.029 329.317 90.9342 321.09 90.9342ZM319.791 11.9514H299.136V78.9829H319.791C329.231 78.9829 337.198 75.8218 343.694 69.4997C350.276 63.1777 353.567 55.1235 353.567 45.3372C353.567 35.551 350.276 27.5401 343.694 21.3046C337.198 15.0691 329.231 11.9514 319.791 11.9514Z" fill="#F50004"/>
<path d="M197.611 90.9342V0H212.161L259.966 71.7081V0H272.307V90.9342H257.888L209.952 18.4467V90.9342H197.611Z" fill="#F50004"/>
<path d="M183.058 90.9342H170.717V0H183.058V90.9342Z" fill="#F50004"/>
<path d="M81.5332 90.9342V0H93.8743V39.2316H143.888V0H156.229V90.9342H143.888V51.4428H93.8743V90.9342H81.5332Z" fill="#F50004"/>
<path d="M70.7988 0V12.0813H41.5699V90.9342H29.2289V12.0813H0V0H70.7988Z" fill="#F50004"/>
</svg>
