<svg width="649" height="99" viewBox="0 0 649 99" fill="none" xmlns="http://www.w3.org/2000/svg">
<path d="M596.956 47.488C592.604 51.7547 590.428 57.216 590.428 63.872C590.428 70.528 592.604 75.9893 596.956 80.256C601.393 84.5227 606.812 86.656 613.212 86.656C619.612 86.656 624.988 84.5227 629.34 80.256C633.777 75.9893 635.996 70.528 635.996 63.872C635.996 57.216 633.777 51.7547 629.34 47.488C624.988 43.2213 619.612 41.088 613.212 41.088C606.812 41.088 601.393 43.2213 596.956 47.488ZM588.38 88.576C581.638 82.0907 578.268 73.856 578.268 63.872C578.268 53.888 581.638 45.6533 588.38 39.168C595.206 32.6827 603.484 29.44 613.212 29.44C622.94 29.44 631.174 32.6827 637.916 39.168C644.742 45.6533 648.156 53.888 648.156 63.872C648.156 73.856 644.742 82.0907 637.916 88.576C631.174 95.0613 622.94 98.304 613.212 98.304C603.484 98.304 595.206 95.0613 588.38 88.576Z" fill="#F50004"/>
<path d="M554.959 19.968C553.509 18.432 552.783 16.5547 552.783 14.336C552.783 12.032 553.509 10.1547 554.959 8.70403C556.495 7.16802 558.373 6.40002 560.591 6.40002C562.81 6.40002 564.687 7.16802 566.223 8.70403C567.759 10.1547 568.527 12.032 568.527 14.336C568.527 16.5547 567.759 18.432 566.223 19.968C564.687 21.4187 562.81 22.144 560.591 22.144C558.373 22.144 556.495 21.4187 554.959 19.968ZM554.575 96V32H566.735V96H554.575Z" fill="#F50004"/>
<path d="M540.407 96H528.247V0H540.407V96ZM521.591 80.256C526.028 75.904 528.247 70.4427 528.247 63.872C528.247 57.3013 526.028 51.8827 521.591 47.616C517.239 43.264 511.863 41.088 505.463 41.088C499.063 41.088 493.644 43.264 489.207 47.616C484.855 51.8827 482.679 57.3013 482.679 63.872C482.679 70.4427 484.855 75.904 489.207 80.256C493.644 84.5227 499.063 86.656 505.463 86.656C511.863 86.656 517.239 84.5227 521.591 80.256ZM524.407 39.296C530.38 45.7813 533.367 53.9733 533.367 63.872C533.367 73.7707 530.38 82.0053 524.407 88.576C518.519 95.0613 511.223 98.304 502.519 98.304C493.559 98.304 485.964 95.0613 479.735 88.576C473.591 82.0053 470.519 73.7707 470.519 63.872C470.519 53.9733 473.591 45.7813 479.735 39.296C485.964 32.7253 493.559 29.44 502.519 29.44C511.223 29.44 518.519 32.7253 524.407 39.296Z" fill="#F50004"/>
<path d="M458.707 32V96H446.547V32H458.707ZM417.363 32V71.424C417.363 75.8613 418.643 79.36 421.203 81.92C423.848 84.48 427.176 85.76 431.187 85.76C435.454 85.76 439.08 84.3947 442.067 81.664C445.054 78.9333 446.547 75.6907 446.547 71.936H452.435C452.435 79.0187 450.046 85.0347 445.267 89.984C440.488 94.9333 434.6 97.408 427.603 97.408C421.203 97.408 415.87 95.2747 411.603 91.008C407.336 86.7413 405.203 81.1093 405.203 74.112V32H417.363Z" fill="#F50004"/>
<path d="M385.926 84.608H394.502V96H384.134C377.649 96 372.529 94.3787 368.774 91.136C365.019 87.808 363.142 83.328 363.142 77.696V43.264H351.494V32H363.142V13.568L375.302 11.008V32H394.502V43.264H375.302V74.88C375.302 78.0373 376.198 80.4693 377.99 82.176C379.867 83.7973 382.513 84.608 385.926 84.608Z" fill="#F50004"/>
<path d="M317.369 69.248C301.326 66.6027 293.305 60.2027 293.305 50.048C293.305 44.3307 295.438 39.6373 299.705 35.968C304.057 32.2133 309.561 30.336 316.217 30.336C322.105 30.336 327.438 31.9573 332.217 35.2C337.081 38.4427 340.579 42.752 342.713 48.128L330.937 51.968C329.657 48.64 327.737 46.0373 325.177 44.16C322.617 42.1973 319.673 41.216 316.345 41.216C313.187 41.216 310.585 42.0267 308.537 43.648C306.489 45.184 305.465 47.1467 305.465 49.536C305.465 51.7547 306.531 53.5467 308.665 54.912C310.883 56.2773 314.382 57.3867 319.161 58.24C327.353 59.52 333.539 61.8667 337.721 65.28C341.987 68.6933 344.121 72.96 344.121 78.08C344.121 83.6267 341.774 88.2347 337.081 91.904C332.473 95.5733 326.755 97.408 319.929 97.408C313.614 97.408 307.897 95.872 302.777 92.8C297.657 89.728 293.987 85.5893 291.769 80.384L303.161 76.032C304.611 79.4453 306.787 82.1333 309.689 84.096C312.675 86.0587 316.003 87.04 319.673 87.04C323.171 87.04 326.073 86.2293 328.377 84.608C330.766 82.9013 331.961 80.8107 331.961 78.336C331.961 73.8987 327.097 70.8693 317.369 69.248Z" fill="#F50004"/>
<path d="M235.8 58.368C235.202 52.992 232.898 48.7253 228.888 45.568C224.962 42.4107 220.226 40.832 214.68 40.832C209.304 40.832 204.696 42.4107 200.856 45.568C197.016 48.7253 194.712 52.992 193.944 58.368H235.8ZM193.944 69.376C194.712 74.752 197.058 79.0187 200.984 82.176C204.909 85.3333 209.645 86.912 215.192 86.912C219.373 86.912 223.17 85.9307 226.584 83.968C229.997 82.0053 232.557 79.36 234.264 76.032L245.4 80.384C242.669 85.8453 238.573 90.1973 233.112 93.44C227.736 96.6827 221.762 98.304 215.192 98.304C205.634 98.304 197.57 95.0613 191 88.576C184.429 82.0053 181.144 73.7707 181.144 63.872C181.144 53.9733 184.344 45.7813 190.744 39.296C197.144 32.7253 205.037 29.44 214.424 29.44C223.81 29.44 231.789 32.6827 238.36 39.168C244.93 45.568 248.216 53.5893 248.216 63.232C248.216 64.9387 247.96 66.9867 247.448 69.376H193.944Z" fill="#F50004"/>
<path d="M102.078 96V0H114.238V96H102.078ZM120.766 47.616C116.414 51.8827 114.238 57.3013 114.238 63.872C114.238 70.4427 116.414 75.904 120.766 80.256C125.203 84.5227 130.622 86.656 137.022 86.656C143.422 86.656 148.798 84.5227 153.15 80.256C157.587 75.904 159.806 70.4427 159.806 63.872C159.806 57.3013 157.587 51.8827 153.15 47.616C148.798 43.264 143.422 41.088 137.022 41.088C130.622 41.088 125.203 43.264 120.766 47.616ZM117.95 88.576C112.062 82.0053 109.118 73.7707 109.118 63.872C109.118 53.9733 112.062 45.7813 117.95 39.296C123.923 32.7253 131.262 29.44 139.966 29.44C148.926 29.44 156.478 32.7253 162.622 39.296C168.851 45.7813 171.966 53.9733 171.966 63.872C171.966 73.7707 168.851 82.0053 162.622 88.576C156.478 95.0613 148.926 98.304 139.966 98.304C131.262 98.304 123.923 95.0613 117.95 88.576Z" fill="#F50004"/>
<path d="M76.2092 19.968C74.7585 18.432 74.0332 16.5547 74.0332 14.336C74.0332 12.032 74.7585 10.1547 76.2092 8.70403C77.7452 7.16802 79.6225 6.40002 81.8412 6.40002C84.0599 6.40002 85.9372 7.16802 87.4732 8.70403C89.0092 10.1547 89.7772 12.032 89.7772 14.336C89.7772 16.5547 89.0092 18.432 87.4732 19.968C85.9372 21.4187 84.0599 22.144 81.8412 22.144C79.6225 22.144 77.7452 21.4187 76.2092 19.968ZM75.8252 96V32H87.9852V96H75.8252Z" fill="#F50004"/>
<path d="M52.096 32H65.024L40.448 96H24.576L0 32H12.928L32.384 84.352L52.096 32Z" fill="#F50004"/>
</svg>
